<?xml version="1.0" encoding="UTF-8" standalone="no"?><svg xmlns="http://www.w3.org/2000/svg" xmlns:xlink="http://www.w3.org/1999/xlink" clip-rule="evenodd" stroke-miterlimit="10" viewBox="0 0 442 82"><desc>SVG generated by Keynote</desc><defs></defs><g transform="matrix(1.00, 0.00, -0.00, -1.00, 0.0, 82.0)"><g><clipPath id="clip0x7f9d4c247010"><path d="M 1.0 81.0 L 441.0 81.0 L 441.0 1.0 L 1.0 1.0 L 1.0 81.0 Z M 1.0 81.0 "></path></clipPath><g clip-path="url(#clip0x7f9d4c247010)"><g><clipPath id="clip0x7f9d4c247770"><path d="M 1.0 1.0 L 441.0 1.0 L 441.0 81.0 L 1.0 81.0 Z M 1.0 1.0 "></path></clipPath><g clip-path="url(#clip0x7f9d4c247770)"><path d="M -4.0 86.0 L 446.0 86.0 L 446.0 -4.0 L -4.0 -4.0 Z M -4.0 86.0 " fill="#D7D7D7"></path></g></g></g></g><g><clipPath id="clip0x7f9d4c248850"><path d="M 217.0 20.0 C 228.6 20.0 238.0 29.4 238.0 41.0 C 238.0 52.6 228.6 62.0 217.0 62.0 C 205.4 62.0 196.0 52.6 196.0 41.0 C 196.0 29.4 205.4 20.0 217.0 20.0 Z M 217.0 20.0 "></path></clipPath><g clip-path="url(#clip0x7f9d4c248850)"><g><clipPath id="clip0x7f9d4c249060"><path d="M 1.0 1.0 L 441.0 1.0 L 441.0 81.0 L 1.0 81.0 Z M 1.0 1.0 "></path></clipPath><g clip-path="url(#clip0x7f9d4c249060)"><path d="M 191.0 67.0 L 243.0 67.0 L 243.0 15.0 L 191.0 15.0 Z M 191.0 67.0 " fill="#FAFAFA"></path></g></g></g></g><g><clipPath id="clip0x7f9d4c249e10"><path d="M 227.6 50.4 L 214.0 36.8 L 208.4 42.4 L 205.6 39.6 L 214.0 31.2 L 230.4 47.6 L 227.6 50.4 Z M 227.6 50.4 "></path></clipPath><g clip-path="url(#clip0x7f9d4c249e10)"><g><clipPath id="clip0x7f9d4c24a580"><path d="M 1.0 1.0 L 441.0 1.0 L 441.0 81.0 L 1.0 81.0 Z M 1.0 1.0 "></path></clipPath><g clip-path="url(#clip0x7f9d4c24a580)"><path d="M 200.6 55.4 L 235.4 55.4 L 235.4 26.2 L 200.6 26.2 Z M 200.6 55.4 " fill="#D7D7D7"></path></g></g></g></g></g></svg>