<?xml version="1.0" encoding="UTF-8" standalone="no"?><svg xmlns="http://www.w3.org/2000/svg" xmlns:xlink="http://www.w3.org/1999/xlink" clip-rule="evenodd" stroke-miterlimit="10" viewBox="0 0 443 83"><desc>SVG generated by Keynote</desc><defs></defs><g transform="matrix(1.00, 0.00, -0.00, -1.00, 0.0, 83.0)"><g><clipPath id="clip0x7f9d4c25fa30"><path d="M 2.0 82.0 L 442.0 82.0 L 442.0 2.0 L 2.0 2.0 L 2.0 82.0 Z M 2.0 82.0 "></path></clipPath><g clip-path="url(#clip0x7f9d4c25fa30)"><g><clipPath id="clip0x7f9d4c260190"><path d="M 2.0 2.0 L 442.0 2.0 L 442.0 82.0 L 2.0 82.0 Z M 2.0 2.0 "></path></clipPath><g clip-path="url(#clip0x7f9d4c260190)"><path d="M -3.0 87.0 L 447.0 87.0 L 447.0 -3.0 L -3.0 -3.0 Z M -3.0 87.0 " fill="#DFDFDF"></path></g></g></g></g><g><clipPath id="clip0x7f9d4c261130"><path d="M 2.0 82.0 L 442.0 82.0 L 442.0 2.0 L 2.0 2.0 L 2.0 82.0 Z M 2.0 82.0 "></path></clipPath><g clip-path="url(#clip0x7f9d4c261130)"><g><clipPath id="clip0x7f9d4c2618a0"><path d="M 2.0 2.0 L 442.0 2.0 L 442.0 82.0 L 2.0 82.0 Z M 2.0 2.0 "></path></clipPath><g clip-path="url(#clip0x7f9d4c2618a0)"><path d="M -3.0 87.0 L 447.0 87.0 L 447.0 -3.0 L -3.0 -3.0 Z M -3.0 87.0 " fill="#D7D7D7"></path></g></g></g></g><g><clipPath id="clip0x7f9d4c262620"><path d="M 2.0 2.0 L 442.0 2.0 L 442.0 82.0 L 2.0 82.0 Z M 2.0 2.0 "></path></clipPath><g clip-path="url(#clip0x7f9d4c262620)"><path d="M 0.6 0.0 L 0.6 19.0 " fill="none" stroke="#B7B7B7" stroke-width="1.20" stroke-linecap="round" stroke-linejoin="round" transform="matrix(-1.00, 0.00, 0.00, -1.00, 420.0, 51.0)"></path><path d="M 0.6 0.5 L 0.6 21.5 " fill="none" stroke="#B5B5B5" stroke-width="1.20" stroke-linecap="round" stroke-linejoin="round" transform="matrix(-1.00, 0.00, 0.00, -1.00, 427.0, 53.0)"></path><path d="M 0.6 0.0 L 0.6 24.0 " fill="none" stroke="#B0B0B0" stroke-width="1.20" stroke-linecap="round" stroke-linejoin="round" transform="matrix(-1.00, 0.00, 0.00, -1.00, 434.0, 54.0)"></path></g></g></g></svg>